<?xml version="1.0" standalone="no"?>
<!DOCTYPE svg PUBLIC "-//W3C//DTD SVG 1.1//EN" "http://www.w3.org/Graphics/SVG/1.1/DTD/svg11.dtd" >
<svg xmlns="http://www.w3.org/2000/svg">
<metadata>
Created by FontForge 20120731 at Thu Mar 30 10:16:33 2017
 By admin
</metadata>
<defs>
<font id="iconfont" horiz-adv-x="1024" >
  <font-face 
    font-family="iconfont"
    font-weight="500"
    font-stretch="normal"
    units-per-em="1024"
    panose-1="2 0 6 3 0 0 0 0 0 0"
    ascent="896"
    descent="-128"
    x-height="792"
    bbox="0 -212 1183 896"
    underline-thickness="0"
    underline-position="0"
    unicode-range="U+0078-E9CE"
  />
<missing-glyph 
 />
    <glyph glyph-name=".notdef" 
 />
    <glyph glyph-name=".notdef" 
 />
    <glyph glyph-name=".null" horiz-adv-x="0" 
 />
    <glyph glyph-name="nonmarkingreturn" horiz-adv-x="341" 
 />
    <glyph glyph-name="x" unicode="x" horiz-adv-x="1001" 
d="M281 543q-27 -1 -53 -1h-83q-18 0 -36.5 -6t-32.5 -18.5t-23 -32t-9 -45.5v-76h912v41q0 16 -0.5 30t-0.5 18q0 13 -5 29t-17 29.5t-31.5 22.5t-49.5 9h-133v-97h-438v97zM955 310v-52q0 -23 0.5 -52t0.5 -58t-10.5 -47.5t-26 -30t-33 -16t-31.5 -4.5q-14 -1 -29.5 -0.5
t-29.5 0.5h-32l-45 128h-439l-44 -128h-29h-34q-20 0 -45 1q-25 0 -41 9.5t-25.5 23t-13.5 29.5t-4 30v167h911zM163 247q-12 0 -21 -8.5t-9 -21.5t9 -21.5t21 -8.5q13 0 22 8.5t9 21.5t-9 21.5t-22 8.5zM316 123q-8 -26 -14 -48q-5 -19 -10.5 -37t-7.5 -25t-3 -15t1 -14.5
t9.5 -10.5t21.5 -4h37h67h81h80h64h36q23 0 34 12t2 38q-5 13 -9.5 30.5t-9.5 34.5q-5 19 -11 39h-368zM336 498v228q0 11 2.5 23t10 21.5t20.5 15.5t34 6h188q31 0 51.5 -14.5t20.5 -52.5v-227h-327z" />
    <glyph glyph-name="jiahao" unicode="&#xe601;" horiz-adv-x="1000" 
d="M883 439h-337v337q0 20 -14.5 35t-35.5 15t-35.5 -15t-14.5 -35v-337h-337q-21 0 -35.5 -14.5t-14.5 -35.5t14.5 -35.5t35.5 -14.5h337v-337q0 -21 14.5 -35.5t35.5 -14.5t35.5 14.5t14.5 35.5v337h337q21 0 35.5 14.5t14.5 35.5t-14.5 35.5t-35.5 14.5z" />
    <glyph glyph-name="delete" unicode="&#xe602;" 
d="M344.5 105q11.5 0 19.5 8t8 20v306q0 12 -8 20t-19.5 8t-19.5 -8t-8 -20v-306q0 -12 8 -20t19.5 -8zM511.5 105q11.5 0 20 8t8.5 20v306q0 12 -8.5 20t-20 8t-19.5 -8t-8 -20v-306q0 -12 8 -20t19.5 -8zM679.5 105q11.5 0 19.5 8t8 20v306q0 12 -8 20t-19.5 8t-20 -8
t-8.5 -20v-306q0 -12 8.5 -20t20 -8zM819 746h-116q-9 37 -39 60.5t-68 23.5h-168q-38 0 -68 -23.5t-39 -60.5h-116q-46 0 -79 -32.5t-33 -78.5v-28h28v-28h56v-530q0 -46 32.5 -79t79.5 -33h446q46 0 79 33t33 79v530h55v28h28v28q0 46 -32.5 78.5t-78.5 32.5zM428 774h168
q31 0 48 -28h-264q16 28 48 28zM791 49q0 -23 -16.5 -39.5t-39.5 -16.5h-446q-24 0 -42 16.5t-18 39.5l4 530h558v-530zM149 635q0 23 16.5 39.5t39.5 16.5h614q23 0 39.5 -16.5t16.5 -39.5h-726z" />
    <glyph glyph-name="shuaxin" unicode="&#xe603;" 
d="M702 64q-80 -56 -178 -55q-12 0 -25 1q-2 0 -5.5 0.5t-4.5 1.5q-13 1 -19 2q-1 1 -11 3q-12 3 -19 5l-8 3q-13 4 -21 7q0 1 -4 3q-14 6 -24 11h-1q-38 22 -69 53v1h-1l-18 20q-1 1 -2 2.5t-2 2.5q-66 84 -66 192h70q3 0 4.5 2.5t0.5 4.5l-119 180q-1 3 -4 3t-4 -3
l-119 -180q-2 -2 -0.5 -4.5t4.5 -2.5h71q0 -126 71 -230l0.5 -1t0.5 -2q3 -3 15 -19q0 -1 2 -3.5t3 -3.5q10 -12 23 -26q2 -2 3 -2q40 -41 90 -68l2 -2q13 -7 29 -14q1 -1 3.5 -2t4.5 -1q10 -5 25 -10q10 -3 13 -4q8 -3 23 -6q13 -3 16 -4q1 0 3 -0.5t3 -0.5q5 -1 23 -3
q1 -1 3.5 -1h4.5q22 -3 40 -3q125 0 228 74q17 11 20.5 31t-8 36.5t-31 20t-36.5 -8.5zM928 317q0 125 -71 228q0 1 -0.5 2t-0.5 2q-6 7 -18 23l-1 1l-1 1q-61 75 -149 114q-1 0 -2.5 1t-2.5 1q-12 5 -28 11q-1 0 -3 0.5t-4 1.5t-3 1q-10 3 -26 7q-12 2 -14 3q-1 0 -3 0.5
t-4 0.5q-3 1 -10 2t-9 1q-1 0 -5.5 0.5t-7.5 0.5q-13 2 -31 2h-3h-3h-0.5h-0.5q-126 0 -228 -73q-17 -11 -20.5 -31t8 -36.5t31 -20t36.5 8.5q79 56 176 55q14 0 27 -1q1 0 4 -0.5t4 -0.5q12 -2 21 -4q1 0 10 -2l20 -5q1 -1 3.5 -1.5t3.5 -0.5q12 -5 22 -9q1 0 1.5 -0.5
t1.5 -0.5q67 -29 114 -87h0.5t0.5 -1q69 -85 69 -194h-71q-3 0 -4.5 -3t0.5 -5l119 -180q1 -3 4 -3t4 3l119 180q1 2 -0.5 5t-4.5 3h-70v0z" />
    <glyph glyph-name="time" unicode="&#xe604;" 
d="M553 345h-325v83h243v243h82v-326zM954 384q0 -90 -35 -171.5t-94.5 -141t-141 -94.5t-171.5 -35t-171.5 35t-141 94.5t-94.5 141t-35 171.5t35 171.5t94.5 141t141 94.5t171.5 35t171.5 -35t141 -94.5t94.5 -141t35 -171.5zM869 384q0 97 -48 179t-130 130t-179 48
t-179 -48t-130 -130t-48 -179t48 -179t130 -130t179 -48t179 48t130 130t48 179z" />
    <glyph glyph-name="share02" unicode="&#xe605;" 
d="M398 400q-1 8 6 11q19 10 59 30q101 52 131 67q18 9 27 -1q1 -1 3 -1.5t3 -1.5q49 -29 102 -2q56 28 59 92q-1 17 -1 18q-5 36 -32 62t-62 30q-29 4 -58.5 -9.5t-45.5 -38.5q-18 -29 -18 -64q0 -6 -4 -8l-40 -20q-46 -24 -63 -32q-85 -43 -99 -50q-5 -3 -11 1
q-31 23 -65.5 23t-64.5 -23q-52 -40 -40 -107q7 -39 40 -65q27 -21 60.5 -22t62.5 18q7 4 13 1l25 -12.5t26 -13.5q5 -2 59 -30t82 -42q10 -5 15 -11t6 -17q2 -49 51 -81q16 -11 45 -14q59 -7 96 40q38 50 13 110q-13 33 -46 50.5t-67 12.5q-33 -5 -53 -22q-6 -6 -11 -3
q-9 5 -25 13t-22 10q-24 13 -72 37.5t-73 36.5q-9 5 -10.5 8t-0.5 13v7z" />
    <glyph glyph-name="ershoufang01" unicode="&#xe62b;" 
d="M902 401l-390 385q-3 5 -7 9q-5 5 -11 9l-1 1q-8 8 -21 7q-12 1 -20 -7l-2 -1q-5 -4 -10 -9q-4 -4 -7 -9l-390 -385q-9 -9 -6.5 -24.5t15.5 -28.5t28 -16t24 6l368 364l368 -364q9 -9 24.5 -6t28.5 16t15.5 28.5t-6.5 24.5zM170 331v-348h219v262h164v-192h17l144 118h61
v160l-297 297zM234 -107l225 -1q13 -2 24 -17q7 -11 22.5 -16.5t29.5 -5.5q41 0 62 23q7 7 57.5 53.5t56.5 55.5q7 12 0 19.5t-23 2.5q-6 -1 -27 -23t-42.5 -46t-46.5 -40.5t-41 -8.5q-14 6 -20.5 15.5t-4.5 19t6.5 17.5t10.5 15q1 1 12.5 14t23 25.5t29 31t33.5 34.5
t32.5 32t30.5 27t23 15q20 8 37 8h18h36.5h46.5h50h44.5h32.5h13v-162h-115q-4 -4 -12 -10.5l-32 -26t-46 -37.5t-49.5 -39.5t-49.5 -37.5t-39.5 -27t-24.5 -12q-20 -2 -353 -2q-2 0 -6 0.5t-13.5 3t-17 7.5t-14 15t-7.5 24q-1 19 7 36t21 18z" />
    <glyph glyph-name="my" unicode="&#xe6a3;" 
d="M672 750q-67 71 -162 71t-162 -71q-67 -69 -67 -167t67 -168q17 -19 39 -33q-87 -29 -148 -90q-117 -116 -118 -326q0 -12 9 -21t22 -9v0q13 0 22 8.5t9 21.5q0 237 162 330q36 21 79.5 33t60.5 13.5t27 1.5v0q4 0 8 1q89 4 152 70q67 70 67 168t-67 167zM510 406
q-69 0 -118 52t-49 125t49 124.5t118 51.5t118 -51.5t49 -124.5t-49 -125t-118 -52zM762 321q-11 6 -23.5 3t-19 -14t-3.5 -23.5t14 -18.5q3 -1 8 -5.5t18.5 -19t24.5 -33.5q57 -94 57 -248q0 -12 9 -21t22 -9t22 9t9 21q0 77 -14.5 142.5t-32.5 102t-41 65.5t-33.5 37
t-16.5 12z" />
    <glyph glyph-name="bianji" unicode="&#xe609;" 
d="M343 353q-1 -2 -1 -3l-45 -165q-4 -15 7 -27q8 -8 20 -8q4 0 7 1l164 45l0.5 -0.5l0.5 -0.5q3 0 5 2l438 438q20 21 20 51q0 34 -25 59l-42 42q-25 25 -60 25q-30 0 -50 -20l-438 -438v-0.5t-1 -0.5zM896 678l-43 -43l-71 71l43 43q5 5 13.5 4.5t14.5 -6.5l41 -41
q7 -7 7 -16q0 -7 -5 -12zM421 346l316 316l71 -72l-315 -315zM364 218l23 83l61 -60zM923.5 505q-12.5 0 -21 -9t-8.5 -22v-408q0 -16 -11.5 -27.5t-27.5 -11.5h-691q-16 0 -27.5 11.5t-11.5 27.5v667q0 16 11.5 27t27.5 11h445q12 0 21 9t9 21.5t-9 21.5t-21 9h-450
q-39 0 -66.5 -28t-27.5 -67v-676q0 -39 27.5 -66.5t66.5 -27.5h700q39 0 67 27.5t28 66.5v414q0 12 -9 21t-21.5 9z" />
    <glyph glyph-name="share" unicode="&#xe624;" 
d="M928 379q-12 0 -21 -9t-9 -22v-285q0 -27 -19.5 -46.5t-47.5 -19.5h-639q-27 0 -46.5 19.5t-19.5 46.5v599q0 27 19.5 46.5t46.5 19.5h208q13 0 22 9t9 21.5t-9 21.5t-22 9h-208q-52 0 -89.5 -37.5t-37.5 -89.5v-599q0 -52 37.5 -89.5t89.5 -37.5h639q53 0 90 37.5
t37 89.5v285q0 13 -8.5 22t-21.5 9v0v0zM293 202q-3 -13 4.5 -23t19.5 -12q3 -1 5 -1q11 0 19.5 7t10.5 18q3 14 9.5 39.5t34 92t64.5 122.5q73 111 175 174q97 59 218 74l-99 -102q-8 -9 -8 -21.5t9 -21t21 -8.5q13 0 22 9l152 157l1 1v0v0l1 1v0l0.5 0.5l0.5 0.5v0v0
q0 1 0.5 1.5l0.5 0.5v0v0v0l1 1v1h1v0v1v0.5t0.5 0.5t0.5 0.5v1.5v0l0.5 0.5t0.5 1v1v0.5v1v0v0v1h1v0v1v0v1v0v1v0v0.5v0.5v0v0v0v1v0v2v0v0v0v0.5v0.5v0v0v1v0v1v0v0l-1 1v0v1v0v0v0v1v0v1v1h-1v1v0v0v0v1h-1v0v1v0v0q0 1 -1 2v0v0.5t-1 0.5v0v1v0v0l-1 1v0v0v1h-1v0v1h-1
v1h-0.5t-0.5 1v0q-1 0 -1 1v0h-1v1h-1v0l-1 1v0l-1 1v0h-1v0l-1 1v0h-1v1h-1h-1v0h-1v1v0h-1v0l-223 73q-11 4 -22.5 -1.5t-15.5 -17.5t1.5 -23t17.5 -15l90 -29q-99 -22 -183 -73q-113 -70 -193 -192q-41 -60 -70.5 -131.5t-36.5 -99.5t-10 -45v0v0v0zM293 202z" />
    <glyph glyph-name="loadding" unicode="&#xe648;" 
d="M746 -39q7 -12 3.5 -26t-16.5 -21q-12 -7 -25.5 -3.5t-20.5 15.5q-8 13 -4 26.5t16 20.5q13 7 26.5 3.5t20.5 -15.5v0zM544 -112v0q0 -14 -10 -24t-25 -10q-14 0 -24 10t-10 24v24q0 14 10 24t24 10q15 0 25 -10t10 -24v-24v0zM333 -74v0q-7 -12 -21 -16t-26 4
q-13 7 -16.5 20.5t3.5 26.5l26 44q7 12 21 16t26 -3t16 -21t-4 -26l-25 -45v0zM169 65v0q-12 -7 -26 -3.5t-21 16.5q-7 12 -3.5 25.5t15.5 20.5l69 40q12 7 26 3.5t21 -16.5q7 -12 3 -25.5t-16 -21.5l-68 -39v0zM96 267v0q-14 0 -24 10t-10 24.5t10 24.5t24 10h107
q14 0 24 -10t10 -24.5t-10 -24.5t-24 -10h-107v0zM134 479v0q-12 6 -15.5 20t3.5 26q7 13 21 16.5t26 -3.5l116 -67q12 -7 15.5 -21t-2.5 -26q-8 -12 -21.5 -15.5t-25.5 3.5l-117 67v0zM273 642v0l81 -140q7 -12 21 -15.5t26 3.5t15.5 20.5t-3.5 26.5l-81 140
q-7 12 -20.5 15.5t-25.5 -3.5q-13 -7 -16.5 -21t3.5 -26v0zM475 715v0q0 14 10 24t24 10q15 0 25 -10t10 -24v-162q0 -14 -10 -24t-25 -10q-14 0 -24 10t-10 24v162v0zM686 677v0q8 12 21.5 15.5t25.5 -3.5q13 -7 16.5 -20.5t-3.5 -26.5l-81 -140q-7 -12 -21 -16t-26 3.5
t-15.5 21t3.5 26.5l80 140v0zM851 538v0l-141 -81q-12 -7 -15.5 -20.5t3.5 -26.5q7 -12 21 -15.5t26 3.5l140 81q12 7 15.5 20.5t-3.5 25.5q-7 13 -20.5 16.5t-25.5 -3.5v0zM923 336v0q14 0 24 -10t10 -24.5t-10 -24.5t-24 -10h-162q-14 0 -24 10t-10 24.5t10 24.5t24 10
h162v0z" />
    <glyph glyph-name="home" unicode="&#xe6f7;" 
d="M908 301l-391 388q-6 6 -14 6t-14 -6l-392 -388q-6 -6 -6 -14t6 -14t14 -6t14 6l68 68v-326q0 -33 21.5 -55.5t53.5 -22.5h137q8 0 13.5 5.5t5.5 13.5v175h177q8 0 13.5 6t5.5 14t-5.5 12.5t-13.5 4.5h-196q-18 0 -18 -17v-177h-119q-16 0 -27 12t-11 29v362l273 271
l378 -375q5 -6 13.5 -6t14 6t5.5 14t-6 14zM797 248q-9 0 -15.5 -6t-6.5 -13v-214q0 -17 -10.5 -29t-26.5 -12h-137q-9 0 -14.5 -5t-5.5 -13t6 -13.5t14 -5.5h137q32 0 53 22.5t21 55.5v214q0 19 -15 19z" />
    <glyph glyph-name="fabu" unicode="&#xe649;" horiz-adv-x="1026" 
d="M513 812q-104 0 -198.5 -40.5t-163 -109t-109.5 -163.5t-41 -199t41 -199t109.5 -163.5t163 -109t198.5 -40.5t199 40.5t163.5 109t109 163.5t40.5 199t-40.5 199t-109 163.5t-163.5 109t-199 40.5zM513 -178q-97 0 -185.5 38t-152.5 102t-101.5 152.5t-37.5 185.5
t37.5 185.5t101.5 152.5t152.5 102t185.5 38t185.5 -38t152.5 -102t102 -152.5t38 -185.5t-38 -185.5t-102 -152.5t-152.5 -102t-185.5 -38zM745 325h-206v206q0 11 -7.5 18.5t-18 7.5t-18 -7.5t-7.5 -18.5v-206h-206q-10 0 -17.5 -7t-7.5 -17.5t7.5 -18t17.5 -7.5h206v-206
q0 -11 7.5 -18t18 -7t18 7t7.5 18v206h206q10 0 17.5 7.5t7.5 18t-7.5 17.5t-17.5 7z" />
    <glyph glyph-name="angle-right" unicode="&#xe9bf;" 
d="M669 347.5q0 -7.5 -6 -13.5l-266 -266q-6 -6 -13.5 -6t-12.5 6l-29 29q-6 5 -6 12.5t6 13.5l225 224l-225 225q-6 6 -6 13.5t6 12.5l29 29q5 6 12.5 6t13.5 -6l266 -266q6 -6 6 -13.5z" />
    <glyph glyph-name="sms" unicode="&#xe77f;" 
d="M239 7l11 -6q121 -65 262 -65q103 0 197.5 35.5t162.5 95.5t108.5 143t40.5 174t-40.5 174t-108.5 143t-162.5 95.5t-197.5 35.5t-197.5 -35.5t-162.5 -95.5t-108.5 -143t-40.5 -174q0 -135 85 -248l9 -12l-51 -173l193 56v0zM349 384q0 -30 -21 -50.5t-50.5 -20.5
t-50 20.5t-20.5 50.5t20.5 50.5t50 20.5t50.5 -20.5t21 -50.5zM599 384q0 -30 -21 -50.5t-50.5 -20.5t-50.5 20.5t-21 50.5t21 50.5t50.5 20.5t50.5 -20.5t21 -50.5zM849 384q0 -30 -21 -50.5t-50.5 -20.5t-50.5 20.5t-21 50.5t21 50.5t50.5 20.5t50.5 -20.5t21 -50.5z" />
    <glyph glyph-name="xingyezixun" unicode="&#xe612;" 
d="M645 225h-446q-8 0 -14 -4.5t-6 -11.5v-37q0 -6 6 -11t14 -5h446q9 0 15 5t6 11v37q0 7 -6 11.5t-15 4.5zM407 651q0 29 -15 45.5t-39 16.5q-25 0 -40.5 -16.5t-15.5 -46.5q0 -29 15.5 -45t41.5 -16q21 0 34 10t18 28l-21 2q-4 -12 -12 -18t-19 -6q-15 0 -25 10.5
t-11 30.5h89v5zM319 662q1 16 10.5 25t23.5 9q16 0 25 -11q6 -8 8 -23h-67zM481 591l24 92l4 -21l19 -71h21l37 119h-19l-21 -69l-7 -23l-6 23l-17 69h-21l-19 -70q-6 -22 -6 -24l-7 25l-19 69h-21l37 -119h21zM191 656q0 23 9 31t22 8q8 0 14 -3.5t8.5 -9.5t2.5 -18v-73h20
v73q0 14 -1 20q-2 9 -6.5 15t-13.5 10t-19 4q-25 0 -38 -20v17h-18v-119h20v65v0zM691 654q-8 3 -29 9q-16 5 -18 5q-6 3 -8 6t-2 7q0 6 5.5 10.5t19.5 4.5q12 0 18.5 -5t7.5 -14l20 2q-2 12 -7 19t-15.5 11t-24.5 4q-9 0 -17.5 -2.5t-12.5 -6.5q-6 -4 -10 -11t-4 -15
t4.5 -15.5t13 -11.5t30.5 -10q17 -4 21 -6q6 -4 6 -11q0 -8 -7 -13.5t-20.5 -5.5t-21.5 6.5t-9 18.5l-20 -3q3 -19 15 -28.5t36 -9.5q14 0 25 4.5t16.5 13.5t5.5 19t-4.5 17t-13.5 11zM797 883h-747q-17 0 -29.5 -12t-12.5 -28v-836q0 -17 12.5 -28.5t29.5 -11.5h747
q17 0 29 11.5t12 28.5v836q0 16 -12 28t-29 12zM788 56q0 -16 -12 -27.5t-29 -11.5h-648q-17 0 -29 11.5t-12 27.5v735q0 17 12 28.5t29 11.5h648q17 0 29 -11.5t12 -28.5v-735zM645 397h-446q-8 0 -14 -5t-6 -11v-37q0 -7 6 -11.5t14 -4.5h446q9 0 15 4.5t6 11.5v37
q0 6 -6 11t-15 5zM645 539h-446q-8 0 -14 -4.5t-6 -11.5v-37q0 -6 6 -11t14 -5h446q9 0 15 5t6 11v37q0 7 -6 11.5t-15 4.5z" />
    <glyph glyph-name="xiaoqu" unicode="&#xe641;" horiz-adv-x="1026" 
d="M510 263h161l-154 -180v-23h180v-134h92v134h178v24l-138 179h148v18l-228 287l-239 -288v-17zM157 -74l-1 679h-15l-92 -54v-625h108zM662 -74v100h-212l-1 26l126 179h-150v27l255 290v296q0 6 -0.5 8t-2.5 4t-6 2h-455q-7 0 -14 -4t-7 -10v-918h467v0zM263 765h349
v-67h-349v67v0zM263 638h349v-68h-349v68v0z" />
    <glyph glyph-name="release02" unicode="&#xe629;" 
d="M714 147l-293 90l293 338l-383 -338l-225 90l720 383zM421 12v158l90 -45z" />
    <glyph glyph-name="zhongjiefei" unicode="&#xe737;" 
d="M883 230q-17 24 -45.5 35t-69.5 17q-26 4 -39.5 7t-31.5 11t-28 20q-27 27 -7 74q12 11 16 25q4 3 4 10q6 13 12 45q28 11 32 38l10 48q2 14 -3.5 27t-15.5 21q25 119 -29 189q-52 67 -150 67q-114 0 -170 -70q-55 -75 -26 -186q-12 -13 -12 -42l9 -48q5 -24 26 -35
q15 -61 45 -86q18 -44 -4 -71q-18 -22 -89 -35q-34 -9 -50.5 -14t-41.5 -17.5t-39 -29.5q-8 -8 -15 -19.5t-11.5 -23.5t-8 -26t-6 -26.5t-4 -26.5t-2.5 -24.5t-1.5 -22t-0.5 -18t0.5 -14l0.5 -7.5q0 -14 9 -19q1 0 2 -1q16 -9 36.5 -18t69 -26t120 -27.5t153.5 -10.5
t153.5 10.5t120 27.5t69 26t36.5 18q1 1 2 1q9 5 9 19q2 4 2.5 27.5t-1.5 56t-11 68t-25 56.5zM493 -38l35 169l3 10v9l-9 61l19 13l19 -13l-10 -61v-9l4 -10l35 -169q-9 0 -27.5 -2t-30.5 -2q-16 4 -38 4zM870 29q-101 -51 -236 -64l-39 176l16 93l-70 44l-71 -44l16 -93
l-38 -176q-94 8 -160 28t-99 39q0 121 35 163q22 26 106 45q4 1 18.5 5t19.5 6t17 5.5t18 6.5l15 7.5t15 9.5t12 11q39 45 9 125q0 3 -6 10q-23 19 -38 80q-3 7 -9.5 13t-13.5 6l-9 48q9 2 13.5 10.5t2.5 18.5q-14 46 -10.5 88t22.5 72q38 51 132 51q78 0 112 -48
q43 -56 16 -167q-4 -8 3 -22q5 -10 19 -10v0l-10 -48q-9 3 -17.5 -3t-10.5 -16q-5 -31 -16 -54v0v0q-7 -13 -13 -19l-3 -4q-36 -75 12 -128q15 -16 39 -27.5t39.5 -15.5t46.5 -11q24 -4 36 -7t27.5 -9.5t23.5 -15.5q19 -28 25.5 -81.5t2.5 -97.5z" />
    <glyph glyph-name="direction-arrow" unicode="&#xe60a;" 
d="M474 818v-734l-180 187q-9 9 -18 0l-37 -37q-9 -9 0 -18l227 -235v-1l2 -2l35 -36q4 -4 9 -3q5 -1 9 3l37 38v0l227 236q9 9 0 18l-37 37q-9 9 -18 0l-178 -185v732q0 5 -3.5 8.5t-9.5 3.5h-53q-5 0 -8.5 -3.5t-3.5 -8.5z" />
    <glyph glyph-name="cha" unicode="&#xe67d;" 
d="M130 62l706 706l59 -59l-706 -706l-59 59v0zM836 3l-706 706l59 59l706 -706l-59 -59v0z" />
    <glyph glyph-name="lock" unicode="&#xe616;" 
d="M782 491h-5q-8 0 -9.5 1.5t-1.5 10.5v4v64q-2 104 -75 175q-61 59 -141.5 70.5t-153.5 -29.5q-127 -70 -132 -219q-1 -10 -1 -28.5v-28.5q0 -18 -1 -19t-18 -1q-26 -1 -42.5 -17.5t-16.5 -43.5q-1 -386 -1 -419q0 -27 18.5 -44.5t42.5 -17.5h266h268t44.5 17t16.5 45v415
q0 12 -1 17q-4 21 -20 34t-37 14zM313 562q0 65 35.5 117.5t93.5 75.5q46 19 92.5 13t85 -28.5t65 -62.5t32.5 -89q3 -4 2.5 -45t-0.5 -46q0 -6 -10 -6h-122h-71h-190q-10 0 -11.5 1.5t-1.5 10.5v59zM787 23q0 -8 -5.5 -13.5t-12.5 -5.5h-514q-7 0 -12.5 5.5t-5.5 13.5v391
q0 8 5.5 13.5t12.5 5.5h514q7 0 12.5 -5.5t5.5 -13.5v-391zM524 371q-26 2 -47 -11t-30 -36t-2.5 -48t25.5 -39q13 -9 13 -25v-56v-29.5t2 -30.5q1 -11 9.5 -18t19.5 -7q23 -1 30 24q1 5 1 13v99t14 29q37 27 29 75q-5 24 -23 41t-41 19z" />
    <glyph glyph-name="jiazai" unicode="&#xe61c;" 
d="M966.5 186.5q-2.5 8.5 -10.5 13t-17 1.5l-40 -13q47 92 47 196q0 88 -34 169q-33 78 -93 138t-138 93q-81 34 -169 34q-82 0 -157 -29q-10 -4 -14 -13t0 -18.5t13 -13.5t18 -1q67 27 140 27q77 0 147.5 -29.5t125 -84t84 -125t29.5 -147.5q0 -98 -47 -184l-3 1l-17 56
q-3 9 -11 13t-16.5 1.5t-13 -10.5t-1.5 -17v0l32 -103v0q3 -9 11 -13t17 -2v0l103 33v0q9 3 13 11t1.5 16.5zM648 23q-65 -25 -136 -25q-77 0 -147.5 29.5t-125 84t-84 125t-29.5 147.5q0 97 46 182l17 -55q2 -9 10 -13t17 -1.5t13 10.5t2 17v0l-32 103v0q-3 9 -11 13t-17 2
v0l-103 -33v0q-9 -3 -13 -11t-1.5 -16.5t10.5 -13t17 -1.5l44 14q-47 -92 -47 -197q0 -88 34 -169q33 -78 93 -138t138 -93q81 -34 169 -34q80 0 153 28q10 3 14 12.5t0.5 18.5t-12.5 13.5t-19 0.5z" />
    <glyph glyph-name="not-through" unicode="&#xe8e4;" 
d="M401 835q-37 0 -64 -27t-27 -65q0 -9 2 -18h-62q-18 0 -31 -13t-13 -31v-35q0 -18 13 -30.5t31 -12.5h354q18 0 30.5 12.5t12.5 30.5v35q0 18 -12.5 31t-30.5 13h-63q2 9 2 18q0 38 -26.5 65t-64.5 27h-51zM427 812q18 0 30.5 -13t12.5 -31q0 -16 -9.5 -28t-23.5 -15h-20
q-14 3 -23.5 15t-9.5 28q0 18 12.5 31t30.5 13zM158 725q-26 0 -45.5 -19.5t-19.5 -46.5v-657q0 -27 19.5 -46.5t45.5 -19.5h537q27 0 46 19.5t19 46.5v45l-45 44v-89q0 -9 -5.5 -14.5t-14.5 -5.5h-537q-8 0 -14 5.5t-6 14.5v657q0 8 6 14t14 6h26v12q0 21 16 34h-42z
M653 725q16 -13 16 -34v-12h26q9 0 14.5 -6t5.5 -14v-162l44 44l0.5 0.5l0.5 0.5v117q0 27 -19 46.5t-46 19.5v0v0h-1v0v0h-1h-1h-1v0h-1h-1h-1h-1h-1h-2h-1h-1h-1h-2h-1h-2h-1h-1h-2h-1h-2h-2h-1h-2h-2h-9zM483 559q-15 0 -25 -10l-51 -51q-11 -11 -11 -25.5t11 -25.5
l156 -156l-156 -156q-11 -10 -11 -25t11 -25l51 -51q10 -11 25 -11t25 11l156 156l156 -156q11 -11 25.5 -11t25.5 11l51 51q10 10 10 25t-10 25l-156 156l156 156q10 11 10 25.5t-10 25.5l-51 51q-11 10 -25.5 10t-25.5 -10l-156 -156l-156 156q-10 10 -25 10z" />
    <glyph glyph-name="phone" unicode="&#xe608;" 
d="M732 722h-440v-597h440v597zM559 769q0 3 -2.5 5.5t-5.5 2.5v0h-90q-3 0 -5.5 -2.5t-2.5 -5.5v0v-8q0 -12 8 -12h4h90q3 0 5.5 2.5t2.5 5.5v4v8h-4zM512 7q17 0 28.5 10t14.5 25q0 17 -10 28.5t-25 14.5q-17 0 -28.5 -9.5t-14.5 -25.5v-4q0 -14 10 -25t25 -14v0zM732 -48
h-440q-23 0 -39 17.5t-16 41.5v750q0 21 16 38t39 17v0h440q24 0 39.5 -15.5t15.5 -39.5v0v-750q0 -24 -16 -41.5t-39 -17.5v0v0z" />
    <glyph glyph-name="button" unicode="&#xe701;" 
d="M730 672h-436q-122 0 -208 -88t-86 -212.5t86 -212t208 -87.5h436q122 0 208 87.5t86 212t-86 212.5t-208 88zM725.5 95q-114.5 0 -195.5 81t-81 195.5t81 195.5t195.5 81t195.5 -81t81 -195.5t-81 -195.5t-195.5 -81z" />
    <glyph glyph-name="mobile02" unicode="&#xe642;" 
d="M872 746q-72 73 -165.5 111.5t-195.5 38.5t-195.5 -38.5t-166 -111t-111 -166t-38.5 -195.5t38.5 -195.5t111 -166t166 -111t195.5 -38.5q121 0 209 42q84 41 111 106q16 38 7.5 75.5t-39.5 68.5l-1 1l2 2q22 24 22 51.5t-23 50.5l-72 73q-22 22 -50 22t-51 -22l-37 -38
q-3 1 -6 3q-9 4 -12 6q-57 36 -107 98q-21 26 -33 50q10 8 27 26l4 4l4 4t4 3q23 24 23 51.5t-23 50.5l-36 36q-9 8 -13 13q-16 16 -25 24q-21 22 -49 22t-50 -22v0h-1v0l-45 -45q-27 -28 -30 -66q-4 -45 17 -101q32 -86 102 -171q89 -106 210 -164q66 -32 119 -35
q3 -1 8 -1q50 0 82 36h1v0q1 1 2 3l1 -1q42 -41 22 -89t-92.5 -82.5t-181.5 -34.5q-94 0 -179 36.5t-147 98.5t-98.5 147t-36.5 179t36.5 179t98.5 146.5t147 98t179 36.5t179 -36.5t146.5 -98t98 -146.5t36.5 -179q0 -62 -16 -123q-3 -10 2 -19t15.5 -12t19.5 2.5t12 15.5
q18 67 18 136q0 102 -38.5 195.5t-111.5 165.5v0zM722 162q-18 -19 -45 -19q-3 0 -5 1q-43 2 -100 30q-112 54 -193 151q-65 78 -94 155q-17 46 -14 80q2 20 16 34l45 45q8 8 15 8q8 0 14 -7l1 -1q8 -7 23 -23q3 -2 7 -6.5t6 -6.5l36 -36q15 -15 0 -31q-6 -5 -11 -11
q-26 -25 -33 -32l-0.5 -0.5l-0.5 -0.5q-16 -15 -9 -38l0.5 -0.5l0.5 -0.5q14 -34 44 -72v0q55 -67 119 -108q6 -4 17 -9q8 -5 12 -7q1 -1 2 -1q8 -4 17 -4q14 0 25 11l45 45q8 8 15 8t14 -7v0v-1v0l73 -73q15 -14 -1 -30v-1q-5 -5 -16 -15q-17 -17 -25 -27v0z" />
    <glyph glyph-name="search" unicode="&#xe647;" 
d="M1015 -76l-249 249q107 123 107 286q0 89 -34.5 170t-93 139.5t-139.5 93t-169.5 34.5t-169.5 -34.5t-139.5 -93t-93 -139.5t-34.5 -169.5t34.5 -169.5t93 -139.5t139.5 -93t170 -34.5q163 0 286 107l249 -249q9 -9 21 -9q13 0 22 9t9 21.5t-9 21.5zM61 459.5
q0 101.5 50.5 188t137 137t188 50.5t188 -50.5t137 -137t50.5 -188t-50.5 -188t-137 -137t-188 -50.5t-188 50t-137 137t-50.5 188.5z" />
    <glyph glyph-name="map" unicode="&#xe693;" 
d="M512 752q-99 0 -169.5 -70.5t-70.5 -169.5q0 -107 190 -341q50 -61 50 -59q10 11 26 30t57.5 72t73 100.5t57.5 104t26 93.5q0 99 -70.5 169.5t-169.5 70.5v0zM512 412q-50 0 -85 35t-35 85t35 85t85 35t85 -35t35 -85t-35 -85t-85 -35v0zM657 241q-10 -14 -20 -29
q66 -13 106.5 -36t40.5 -48q0 -36 -78.5 -65.5t-193.5 -29.5t-193.5 29.5t-78.5 65.5q0 25 40.5 48t106.5 36q-9 13 -20 29q-73 -16 -116 -46t-43 -67q0 -55 87 -91t217 -36t217 36.5t87 90.5q0 37 -43 67t-116 46z" />
    <glyph glyph-name="house-release" unicode="&#xe60f;" horiz-adv-x="1198" 
d="M139 388q5 0 9 -2q13 -5 13 -20v-353q0 -43 30.5 -74t73.5 -31h178q11 0 19 8.5t8 19.5v202q0 9 6.5 15.5t15.5 6.5h10q11 0 19.5 8t8.5 20t-8.5 20t-19.5 8h-60q-12 0 -20.5 -8t-8.5 -20v-201q0 -9 -6.5 -15.5t-15.5 -6.5h-100q-30 0 -51.5 21.5t-21.5 52.5v194v4v203
q0 7 -3 13q-8 14 4 26l298 304q21 21 51 21t52 -21l360 -366q5 -2 10 -2q12 0 20 8.5t8 20.5q0 13 -9 21q-2 3 -3 4l-364 373q-31 31 -73 31q-43 0 -73 -31l-439 -447q-1 -2 -3 -3q-9 -8 -9 -21q0 -12 8.5 -20.5t20.5 -8.5q13 0 21 11q1 0 2 2l27 27q6 6 15 6zM911 21h207
l-45 45q-6 6 -6 14t5.5 13.5t13.5 5.5t14 -6l78 -78v0v0l1 -1v0v0l1 -1v0v0v-1h1v-1v0v-1v0h1v-1v0v-0.5v-0.5v0v-0.5v-0.5v0h0.5t0.5 -1v0v0v0v-1v0v0v-1v0v-1v0v-1v0v0v-1v-1v0v-1v0v-1v0v0v-1v0h-0.5h-0.5v-1v0v0v-1v0v-1v0h-1v-1v0v-1v0l-1 -1v0v0v-1h-1v0v-1h-1v-0.5
v-0.5l-78 -78q-6 -5 -14 -5t-13.5 5.5t-5.5 13.5t6 14l45 45h-207q-8 0 -13.5 5.5t-5.5 13.5t5.5 13.5t13.5 5.5v0v0v0zM970 252q0 8 -6 13.5t-13 5.5h-253q-8 0 -14 -5.5t-6 -13.5t6 -13.5t14 -5.5h253q7 0 13 5.5t6 13.5v0v0zM931 140q0 8 -5.5 13.5t-13.5 5.5h-214
q-8 0 -14 -5.5t-6 -13.5t6 -13.5t14 -5.5h214q8 0 13.5 5.5t5.5 13.5v0v0zM698 52q-8 0 -14 -5.5t-6 -13.5t6 -13.5t14 -5.5h116q8 0 14 5.5t6 13.5t-6 13.5t-14 5.5h-116zM985 -94q2 4 4 6.5t3 4.5t1 7q0 9 -6 19t-13 10v0h-322l-4 -1v4v374v4q1 -1 4 -1h344l4 1v-4v-231
q0 -8 9.5 -13.5t18.5 -5.5t19 6t10 13v231q0 21 -19.5 40.5t-40.5 19.5h-345q-21 0 -40.5 -19.5t-19.5 -40.5v-374q0 -21 19.5 -40.5t40.5 -19.5h318z" />
    <glyph glyph-name="info-release" unicode="&#xe64d;" 
d="M64 -63v817h482v-55h-423v-656l135 82l572 -1v378h60v-439h-614zM852 573l-179 163l20 19q33 32 56 53q25 24 58 24q31 0 54 -18q33 -25 74 -66q26 -26 24 -57q-3 -30 -31 -52zM756 737l97 -88l36 30v1q10 7 10 16q1 6 -8 15q-37 38 -68 61q-7 6 -16 6q-8 0 -16 -8
q-13 -12 -35 -33v0zM550 286l-179 164l275 262l42 -38l-235 -221l95 -91l236 224l42 -38zM265 188l88 235l44 -41l-48 -119l132 42l44 -38z" />
    <glyph glyph-name="mobile" unicode="&#xe688;" 
d="M443 235q-12 -48 -39 -87q-29 -40 -71 -70q20 -13 35 -19q16 -7 25 -7q31 0 65 46q35 46 35 80q0 13 -10 25t-40 32zM634 546q15 -4 23 -4q23 0 44.5 42.5t21.5 86.5q0 25 -14 40q-13 14 -55 29q0 -53 -15 -101q-15 -47 -43 -81q26 -9 38 -12zM984 584
q-39 91 -109.5 161.5t-162.5 109.5q-94 40 -198 40t-199 -40q-14 -6 -29 -13q-78 -37 -140 -99q-70 -70 -108 -162t-38 -190q0 -87 26 -160q4 -11 9 -23q4 -11 9 -22q21 -49 51 -93q17 -13 41 -17q4 -1 8 -1h2h4q23 -1 30 8q-51 56 -81 127q-35 83 -35 175t35 175
q34 81 96.5 143.5t143.5 96.5q83 35 174.5 35t175.5 -35q36 -16 70 -37q31 -23 60 -51q64 -64 99 -147q34 -84 34 -174q0 -89 -34.5 -173t-98.5 -148q-65 -64 -148 -99q-84 -34 -173 -34q-18 0 -35 1q-64 7 -124 32q-38 16 -53 28q-26 25 -26 66q0 12 5 24q7 19 11 25
q10 -10 18 -14q8 -5 15 -5q9 0 30 18q21 17 41 44q17 22 29 51t12 37q0 4 -14 21t-14 35q0 23 13 60q13 39 38 89q29 60 47 83t37 30q5 2 15 3q33 3 49 28q15 26 26 65t11 66q0 23 -7 30q-7 8 -29 8q-35 0 -60 -5t-37 -14q-16 -12 -50 -55q-34 -44 -70 -99
q-65 -102 -107 -217.5t-42 -173.5q0 -11 5 -24t18 -33q-17 -21 -26 -43q-13 -38 -8 -77t24 -61q30 -36 85 -59q71 -28 189 -28q99 0 198 42q92 39 162.5 109.5t109.5 161.5q40 95 40 199t-40 199z" />
    <glyph glyph-name="upload" unicode="&#xe622;" 
d="M872 7q12 0 21 8.5t9 21.5v177q0 12 -9 21t-21.5 9t-21.5 -9t-9 -21v-147h-668v147q0 12 -9 21t-21.5 9t-21.5 -9t-9 -21v-177q0 -13 9 -21.5t21 -8.5h730zM640 495q9 -9 21.5 -9t21.5 9t9 21.5t-9 21.5l-152 182q-9 9 -23 8q-14 1 -23 -8l-152 -182q-9 -9 -9 -21.5
t9 -21.5t21.5 -9t21.5 9l102 121v-433q0 -12 9 -21t21.5 -9t21.5 9t9 21v432z" />
    <glyph glyph-name="select-house" unicode="&#xe70b;" 
d="M609 -117h-351q-59 0 -101 41.5t-42 100.5v337q0 9 6 15t14.5 6t14.5 -6t6 -15v-336q0 -42 30 -72t72 -30h351q9 0 15 -6t6 -14.5t-6 -14.5t-15 -6zM132 393h28v-41h-28v41zM963 352h-100q-8 0 -14 6t-6 14.5t6 14.5t14 6h100q8 0 11 2q-2 4 -7 9l-426 433q-11 13 -29 13
t-30 -13l-425 -433q-5 -5 -7 -9q6 -2 11 -2h70q9 0 15 -6t6 -14.5t-6 -14.5t-15 -6h-70q-39 0 -51 26q-11 26 17 54l426 434q24 25 59 25t59 -25l425 -433q28 -29 17 -55q-9 -26 -50 -26zM722 63q-7 0 -11 6q-13 16 -19 37q-8 31 2.5 60.5t35.5 49.5q11 8 20 -3
q8 -11 -3 -19q-18 -15 -25.5 -36.5t-2.5 -44.5q4 -14 14 -27q8 -12 -3 -20q-3 -3 -8 -3v0zM944 -103q-13 0 -19 10l-64 85q-6 8 -4.5 17.5t9.5 15.5t17.5 4.5t15.5 -9.5l64 -86q5 -7 3.5 -17t-9.5 -15q-6 -5 -13 -5v0zM780.5 -25q-68.5 0 -117 48.5t-48.5 117t48.5 116.5
t117 48t116.5 -48t48 -116.5t-48 -117t-116.5 -48.5zM780 278q-57 0 -97 -40.5t-40 -97.5t40 -97t97 -40t97.5 40t40.5 97t-40.5 97.5t-97.5 40.5z" />
    <glyph glyph-name="stay-select" unicode="&#xe62e;" 
d="M475 526q-42 -21 -72.5 -55.5t-44.5 -78.5l7 14v-1v0q0 -12 8.5 -20.5t19.5 -8.5q17 0 25 16q30 66 97 90q-3 -1 -3 1t1.5 7.5t1.5 9.5q0 12 -8.5 20t-19.5 8q-7 0 -13 -2h1zM762 354v0q-12 0 -20 -8t-8 -20v0q0 -68 -48.5 -116t-116.5 -48q-11 0 -19.5 -8.5t-8.5 -20
t8.5 -19.5t19.5 -8q92 0 156 64q65 65 65 156v0v1q0 11 -8 19t-20 8v0v0zM952 -15l-127 127q79 93 79 216v0v1q0 68 -26 129t-73 107q-46 47 -107 73t-129 26h-1h-1q-68 0 -129 -26t-107 -72q-47 -47 -73 -108t-26 -129v-1v-1q0 -68 26 -129t72 -107q47 -47 108 -73t129 -26
h1v0h1q123 0 217 80l126 -127q8 -8 20 -8t20 8t8 19.5t-8 20.5v0zM568 48q-116 0 -198 82t-82 198t82 198t198 82t198 -82t82 -198t-82 -198t-198 -82v0zM343 -8h-156v0q-28 0 -47.5 19.5t-19.5 47.5v650q0 28 19.5 47.5t47.5 19.5h595q27 0 46.5 -19.5t19.5 -47.5v-81
q0 -11 8 -19.5t20 -8.5t20 8.5t8 19.5v82q0 50 -36 86t-86 36h-595q-51 0 -87 -36t-36 -86v-652q0 -50 36 -86t86 -36h157q12 0 20 8t8 20t-8 20t-20 8v0z" />
    <glyph glyph-name="shelves" unicode="&#xe61a;" 
d="M267 589q23 0 23 20q0 86 65 146.5t157 60.5t157 -60.5t65 -146.5q0 -20 23 -20q25 0 25 22q0 105 -79 180t-191 75q-111 0 -190.5 -75t-79.5 -180q0 -22 25 -22zM932 514q-25 27 -70 27h-700q-45 0 -70 -27q-25 -29 -17 -80q6 -45 24.5 -159.5t35 -210t17.5 -97.5
q6 -24 28.5 -46t61.5 -22h540q40 0 62.5 21.5t27.5 46.5q0 1 7.5 44t17 99.5t20.5 119.5t20 119t12 82q8 54 -17 83zM894 434q-5 -38 -21 -133t-34 -201t-20 -116v-2q0 -3 -3 -8.5t-14 -12.5t-28 -7h-524q-10 0 -18 2.5t-12.5 6.5t-7.5 8t-5 7.5l-2 3.5q-2 10 -20.5 116
t-34.5 201t-20 132q-4 32 7 43q13 12 35 12h680q22 0 35 -12q11 -8 7 -40zM495 69q3 0 0 0l2 -2h25l157 157q8 8 8 17.5t-8 15.5q-7 7 -17 7t-18 -7l-117 -118v247q0 10 -7.5 17.5t-17.5 7.5t-17.5 -7.5t-7.5 -17.5v-247l-117 118q-8 7 -18 7t-17.5 -7.5t-7.5 -17.5t8 -17z
M495 69z" />
    <glyph glyph-name="wujiaoxing" unicode="&#xe63b;" 
d="M992 497l-331 50l-149 317l-149 -317l-331 -50l240 -245l-58 -348l298 163l298 -163l-58 348zM512 139l-223 -125l43 250l-192 194l259 34l113 240l113 -240l259 -36l-192 -192l41 -252z" />
    <glyph glyph-name="download" unicode="&#xe63f;" 
d="M872 728h-730q-12 0 -21 -8.5t-9 -21.5v-177q0 -12 9 -21t21.5 -9t21.5 9t9 21v147h668v-147q0 -12 9 -21t21.5 -9t21.5 9t9 21v177q0 13 -9 21.5t-21 8.5zM640 240l-101 -120v432q0 12 -9 21t-21.5 9t-21.5 -9t-9 -21v-433l-102 121q-9 9 -21.5 9t-21.5 -9t-9 -21.5
t9 -21.5l152 -182q9 -9 23 -8q14 -1 23 8l152 182q9 9 9 21.5t-9 21.5t-21.5 9t-21.5 -9z" />
    <glyph glyph-name="home01" unicode="&#xe634;" 
d="M994 384l-469 439l-469 -438q-7 -6 -7 -15.5t6.5 -16.5t15.5 -7t16 6l438 408l438 -409q6 -6 15 -6v0v0q10 0 17 7q6 7 5.5 16.5t-6.5 15.5zM850.5 375q-9.5 0 -16 -6.5t-6.5 -16.5v-348h-182v242h-242v-242h-182v348q0 10 -6.5 16.5t-16 6.5t-16 -6.5t-6.5 -16.5v-394
h272v243h152v-243h272v394q0 10 -6.5 16.5t-16 6.5zM692 701h136v-122q0 -9 6.5 -15.5t16 -6.5t16 6.5t6.5 15.5v167h-181q-10 0 -16.5 -6.5t-6.5 -16t6.5 -16t16.5 -6.5zM207 -5h210v232h203v-232h226v359h125l-446 423l-462 -417l142 -6z" />
    <glyph glyph-name="editor-color" unicode="&#xe619;" horiz-adv-x="1078" 
d="M700 82q0 -23 -9.5 -39t-24.5 -16h-251q-14 0 -24 16t-10 39v660q0 23 10 39t24 16h251q14 0 24 -16t10 -39v-660v0zM958 90q0 -23 -8.5 -39.5t-21.5 -16.5h-220q-12 0 -20.5 16.5t-8.5 39.5v678q0 23 8.5 39.5t20.5 16.5h220q13 0 21.5 -16.5t8.5 -39.5v-678zM863 2
h-624q-41 0 -70 28.5t-29 69.5v624q0 41 29 70t70 29h445q8 0 13 -5.5t5 -13t-5 -13t-13 -5.5h-445v0q-26 0 -44 -18t-18 -44v-624q0 -25 18 -43.5t44 -18.5h624q25 0 43.5 18.5t18.5 43.5v363q0 7 5 12.5t12.5 5.5t13 -5.5t5.5 -12.5v-363q0 -41 -29 -69.5t-69 -28.5v0z
M679 502v0q-8 0 -13 5t-5 12.5t5 13.5l327 327q6 5 13.5 5t12.5 -5t5 -12.5t-5 -13.5l-327 -327q-6 -5 -13 -5v0zM551 464h-242q-7 0 -12.5 5.5t-5.5 13t5.5 13t12.5 5.5h242q7 0 12.5 -5.5t5.5 -13t-5.5 -13t-12.5 -5.5zM792 243h-483q-7 0 -12.5 5.5t-5.5 13t5.5 13
t12.5 5.5h483q8 0 13 -5.5t5 -13t-5 -13t-13 -5.5v0z" />
    <glyph glyph-name="label" unicode="&#xe753;" 
d="M827 349l-364 -340q-20 -19 -49 -19t-49 20l-240 232q-20 19 -20 47t19 47l439 449l-16 -7h301q27 0 46.5 -19.5t19.5 -47.5v-289q0 -9 6.5 -15.5t16 -6.5t16 6.5t6.5 15.5v289q0 46 -32.5 79t-78.5 33h-301v0q-10 0 -16 -7l-439 -448q-32 -33 -31.5 -79.5t33.5 -78.5
l240 -232q33 -32 79.5 -32.5t80.5 31.5l364 339q7 7 7 16t-6 15.5t-15.5 7t-16.5 -5.5zM724.5 489q41.5 0 71 29t29.5 70.5t-29.5 71t-71 29.5t-70.5 -29.5t-29 -71t29 -70.5t70.5 -29zM725 533q-23 0 -39.5 16.5t-16.5 39.5t16.5 39t39.5 16t39.5 -16t16.5 -39t-16.5 -39.5
t-39.5 -16.5z" />
    <glyph glyph-name="house-color" unicode="&#xe600;" 
d="M217 65q0 -57 11 -69.5t62 -12.5h108v219q0 32 10 42t39 10h124q31 0 45 -10.5t14 -41.5v-219h99q53 0 67.5 14t14.5 68v460q0 5 2 9l-304 228l-296 -223q4 -6 4 -14v-460v0zM605 -17v219q0 18 -5.5 22t-28.5 4h-124q-8 0 -11.5 -0.5t-7 -0.5t-4 -3t-1 -3.5t0 -7.5
t0.5 -11v-219h181zM842 -28v0q0 -1 -1 -3zM951 495l-426 320q0 1 -0.5 1h-0.5q-2 1 -3 2q-5 3 -12 3q-1 0 -2 -1q-8 0 -14 -5h1l-426 -320q-10 -8 -10 -21q0 -8 5 -15q6 -8 16.5 -10t19.5 4l66 51v-439q0 -77 26 -105.5t99 -28.5h439q85 0 113 41v0q21 31 21 93v431l57 -43
q7 -5 16 -5q10 0 17.5 7.5t7.5 18.5q0 13 -10 21v0zM509 762l304 -228q-2 -4 -2 -9v-460q0 -54 -14.5 -68t-67.5 -14h-99v219q0 31 -14 41.5t-45 10.5h-124q-29 0 -39 -10t-10 -42v-219h-108q-51 0 -62 12.5t-11 69.5v460q0 8 -4 14zM447 228h124q23 0 28.5 -4t5.5 -22v-219
h-181v219q0 4 -0.5 8.5t0 6.5t0.5 4.5t1 3t2 2t4.5 1.5h6.5h9zM440 631l-169 -130q-2 -1 -2 -10v-147q0 -5 3.5 -9t9 -4t9.5 4t4 9v141l162 126q9 7 0 18q-3 5 -9 5h-1q-4 0 -7 -3v0zM282 306q-6 0 -9.5 -4t-3.5 -9v0v-13q0 -8 6 -11q0 -6 4 -9.5t9.5 -3.5t9 3.5t3.5 9.5
q0 7 -6 11v13v0q0 5 -4 9t-9 4v0v0z" />
    <glyph glyph-name="house" unicode="&#xe7df;" 
d="M1005 403l-467 461q-12 12 -24 9q-13 0 -23 -11l-130 -135v41q0 21 -14.5 35t-35.5 14h-89q-21 0 -35 -14t-14 -35v-233l-154 -155q-9 -10 -9 -22.5t9 -22.5q9 -9 21.5 -9t23.5 11l51 53v-424q0 -27 19.5 -46.5t46.5 -19.5h666q27 0 46.5 19.5t19.5 46.5v435l43 -43
q9 -9 22 -9t23 9q10 10 11 23t-7 22zM237 753h62v-90l-62 -61v151zM851 -38l-2 -3h-666l-2 3v490l335 344l337 -333v-501h-2zM301 422l409 -6q13 0 22.5 -9.5t9.5 -22.5t-9.5 -22.5t-22.5 -9.5l-411 6q-13 0 -22.5 10t-9.5 22.5t10 22t24 9.5zM742 200.5q0 -12.5 -9.5 -22
t-22.5 -9.5l-411 6q-13 0 -22.5 9.5t-9.5 22.5t9.5 22.5t22.5 9.5l409 -6q14 0 24 -10t10 -22.5z" />
    <glyph glyph-name="release" unicode="&#xe9c1;" 
d="M512 864q-98 0 -186.5 -38t-153 -102.5t-102.5 -153t-38 -186.5t38 -186.5t102.5 -153t153 -102.5t186.5 -38t186.5 38t153 102.5t102.5 153t38 186.5t-38 186.5t-102.5 153t-153 102.5t-186.5 38zM692 354h-150v-150q0 -12 -9 -20.5t-21 -8.5t-21 8.5t-9 20.5v150h-150
v0q-12 0 -21 9t-9 21t9 21t21 9v0h150v150q0 12 9 21t21 9v0v0q12 0 21 -9t9 -21v-150h150q12 0 21 -9t9 -21t-9 -21t-21 -9z" />
    <glyph glyph-name="release-cancel" unicode="&#xe9c2;" 
d="M172.5 723.5q-92.5 -92.5 -125 -216t0 -247t125 -216t216 -125t247 0t216 125t125 216t0 247t-125 216t-216 125t-247 0t-216 -125zM660 490l-106 -106l107 -106q8 -9 8 -21t-9 -21t-21 -9t-21 8l-106 107l-106 -106v0q-9 -9 -21.5 -9t-21 8.5t-8.5 21t8 21.5h1l106 106
l-107 106q-8 9 -8 21.5t9 20.5v0v0q8 9 20.5 9t21.5 -8l106 -107l106 106q9 9 21.5 9t21 -8.5t8.5 -21t-9 -21.5z" />
    <glyph glyph-name="angle-up" unicode="&#xe9c3;" 
d="M548.5 541q7.5 0 13.5 -6l266 -266q6 -6 6 -13.5t-6 -12.5l-29 -29q-5 -6 -12.5 -6t-13.5 6l-224 225l-225 -225q-6 -6 -13.5 -6t-12.5 6l-29 29q-6 5 -6 12.5t6 13.5l266 266q6 6 13.5 6z" />
    <glyph glyph-name="angle-left-copy" unicode="&#xe9c4;" 
d="M355 420.5q0 7.5 6 13.5l266 266q6 6 13.5 6t12.5 -6l29 -29q6 -5 6 -12.5t-6 -13.5l-225 -224l225 -225q6 -6 6 -13.5t-6 -12.5l-29 -29q-5 -6 -12.5 -6t-13.5 6l-266 266q-6 6 -6 13.5z" />
    <glyph glyph-name="angle-down-copy" unicode="&#xe9c5;" 
d="M475.5 227q-7.5 0 -13.5 6l-266 266q-6 6 -6 13.5t6 12.5l29 29q5 6 12.5 6t13.5 -6l224 -225l225 225q6 6 13.5 6t12.5 -6l29 -29q6 -5 6 -12.5t-6 -13.5l-266 -266q-6 -6 -13.5 -6z" />
    <glyph glyph-name="triangle-right-copy" unicode="&#xe9c6;" 
d="M341 77v616l342 -308z" />
    <glyph glyph-name="triangle-left-copy" unicode="&#xe9c7;" 
d="M683 691v-616l-342 308z" />
    <glyph glyph-name="triangle-up-copy" unicode="&#xe9c8;" 
d="M819 213h-616l308 342z" />
    <glyph glyph-name="triangle-down-copy" unicode="&#xe9c9;" 
d="M205 555h616l-308 -342z" />
    <glyph glyph-name="button02-copy" unicode="&#xe9ca;" 
d="M294 96h436q122 0 208 88t86 212.5t-86 212t-208 87.5h-436q-122 0 -208 -87.5t-86 -212t86 -212.5t208 -88zM298.5 673q114.5 0 195.5 -81t81 -195.5t-81 -195.5t-195.5 -81t-195.5 81t-81 195.5t81 195.5t195.5 81z" />
    <glyph glyph-name="home02" unicode="&#xe9cb;" 
d="M994 384l-469 439l-469 -438q-7 -6 -7 -15.5t6.5 -16.5t15.5 -7t16 6l438 408l438 -409q6 -6 15 -6v0v0q10 0 17 7q6 7 5.5 16.5t-6.5 15.5zM850.5 375q-9.5 0 -16 -6.5t-6.5 -16.5v-348h-182v242h-242v-242h-182v348q0 10 -6.5 16.5t-16 6.5t-16 -6.5t-6.5 -16.5v-394
h272v243h152v-243h272v394q0 10 -6.5 16.5t-16 6.5zM692 701h136v-122q0 -9 6.5 -15.5t16 -6.5t16 6.5t6.5 15.5v167h-181q-10 0 -16.5 -6.5t-6.5 -16t6.5 -16t16.5 -6.5zM207 -5h210v232h203v-232h226v359h125l-446 423l-462 -417l142 -6z" />
    <glyph glyph-name="my02" unicode="&#xe9cc;" 
d="M672 750q-67 71 -162 71t-162 -71q-67 -69 -67 -167t67 -168q17 -19 39 -33q-87 -29 -148 -90q-117 -116 -118 -326q0 -12 9 -21t22 -9v0q13 0 22 8.5t9 21.5q0 237 162 330q36 21 79.5 33t60.5 13.5t27 1.5v0q4 0 8 1q89 4 152 70q67 70 67 168t-67 167zM510 406
q-69 0 -118 52t-49 125t49 124.5t118 51.5t118 -51.5t49 -124.5t-49 -125t-118 -52zM762 321q-11 6 -23.5 3t-19 -14t-3.5 -23.5t14 -18.5q3 -1 8 -5.5t18.5 -19t24.5 -33.5q57 -94 57 -248q0 -12 9 -21t22 -9t22 9t9 21q0 77 -14.5 142.5t-32.5 102t-41 65.5t-33.5 37
t-16.5 12z" />
    <glyph glyph-name="fork02" unicode="&#xe9cd;" horiz-adv-x="1000" 
d="M772 727l-254 -254l-254 254q-16 15 -38 15t-38 -15.5t-16 -38t16 -37.5l254 -254l-254 -254q-16 -16 -16 -38t16 -38t38 -16t38 16l254 254l253 -254q16 -16 38.5 -16t38 16t15.5 38t-16 38l-254 254l254 254q16 15 16 37.5t-15.5 38t-38 15.5t-37.5 -15z" />
    <glyph glyph-name="direction-arrow02" unicode="&#xe9ce;" 
d="M550 -50v734l180 -187q9 -9 18 0l37 37q9 9 0 18l-227 235v1l-2 2l-35 36q-4 4 -9 3q-5 1 -9 -3l-37 -38v0l-227 -236q-9 -9 0 -18l37 -37q9 -9 18 0l178 185v-732q0 -5 3.5 -8.5t9.5 -3.5h53q5 0 8.5 3.5t3.5 8.5v0z" />
  </font>
</defs>
</svg>
